<svg width="299" height="74" viewBox="0 0 299 74" fill="none" xmlns="http://www.w3.org/2000/svg">
<g clip-path="url(#clip0_420_928)">
<path d="M150.156 49.3322V31.2784H155.374L155.545 34.9085L154.445 35.3201C154.711 34.4874 155.171 33.7285 155.789 33.1056C156.46 32.4165 157.261 31.8655 158.147 31.4842C159.052 31.0755 160.036 30.865 161.03 30.867C162.244 30.824 163.446 31.1175 164.501 31.7142C165.464 32.2886 166.211 33.1599 166.626 34.1947C167.146 35.4696 167.392 36.8379 167.348 38.2121V49.2959H161.825V38.6477C161.846 38.0325 161.742 37.4194 161.52 36.8447C161.333 36.3925 160.991 36.0198 160.554 35.792C160.085 35.5332 159.55 35.4155 159.014 35.4531C158.555 35.4497 158.099 35.5317 157.67 35.6951C157.269 35.8214 156.905 36.0414 156.608 36.3364C156.313 36.6114 156.069 36.9349 155.887 37.2924C155.72 37.6743 155.637 38.0866 155.643 38.5025V49.3201H150.156V49.3322Z" fill="#FA5D48"/>
<path d="M139.503 49.3323V31.2784H145.001V49.3323H139.503Z" fill="#FA5D48"/>
<path d="M123.387 49.6953C122.174 49.732 120.974 49.439 119.917 48.8482C118.956 48.2344 118.193 47.3611 117.718 46.3314C117.189 45.0966 116.935 43.7637 116.973 42.423V31.2784H122.532V41.6728C122.513 42.3147 122.629 42.9533 122.873 43.5483C123.088 44.0428 123.445 44.4638 123.9 44.7583C124.401 45.0437 124.972 45.1862 125.55 45.1698C125.997 45.1737 126.441 45.0914 126.857 44.9277C127.241 44.7881 127.59 44.5695 127.883 44.2864C128.169 43.999 128.401 43.6629 128.567 43.2942C128.725 42.9098 128.809 42.4992 128.812 42.0842V31.3148H134.335V49.3686H129.154L128.91 45.6537L129.948 45.2545C129.668 46.1175 129.197 46.9074 128.567 47.5657C127.888 48.2504 127.084 48.8007 126.197 49.1871C125.305 49.5456 124.349 49.7187 123.387 49.6953Z" fill="#1A9988"/>
<path d="M106.954 49.3323V24.1755H112.44V49.3323H106.954Z" fill="#1A9988"/>
<path d="M91.1067 49.6953C89.8975 49.7323 88.7018 49.4392 87.6495 48.8482C86.686 48.2376 85.9217 47.3634 85.4498 46.3314C84.9168 45.0976 84.6583 43.7646 84.6922 42.423V31.2784H90.2148V41.6728C90.2022 42.3142 90.3188 42.9517 90.5572 43.5483C90.7723 44.046 91.1345 44.4678 91.5959 44.7583C92.0917 45.0451 92.659 45.1878 93.2329 45.1698C93.6805 45.1749 94.1245 45.0926 94.54 44.9277C94.924 44.7881 95.2742 44.5695 95.5667 44.2864C95.8566 43.9993 96.0923 43.6633 96.263 43.2942C96.4168 42.909 96.4955 42.4984 96.495 42.0842V31.3148H102.03V49.3686H96.8739L96.6418 45.6537L97.6679 45.2544C97.3864 46.114 96.9193 46.9026 96.2994 47.5657C95.6334 48.2319 94.8514 48.773 93.9906 49.1629C93.0784 49.5407 92.0951 49.7222 91.1067 49.6953Z" fill="#1A9988"/>
<path d="M58.9977 49.3323V25.5307H69.0531C70.7246 25.5092 72.3843 25.8093 73.9403 26.4142C75.359 26.9443 76.6462 27.7696 77.7155 28.8343C78.7857 29.9112 79.6179 31.1969 80.1592 32.6096C80.7516 34.1547 81.042 35.7972 81.0147 37.4497C81.0374 39.1019 80.747 40.7436 80.1592 42.2899C79.6179 43.7026 78.7857 44.9883 77.7155 46.0652C76.6367 47.1182 75.3521 47.9417 73.9403 48.4853C72.381 49.0761 70.7225 49.3676 69.0531 49.3444L58.9977 49.3323ZM64.8257 45.3875L64.0436 44.1775H68.9308C69.8094 44.1926 70.6822 44.0321 71.4967 43.7056C72.2315 43.3808 72.8893 42.9067 73.4273 42.314C73.9734 41.687 74.3887 40.9592 74.6491 40.1723C75.2355 38.3583 75.2355 36.408 74.6491 34.5939C74.3887 33.8071 73.9734 33.0793 73.4273 32.4523C72.8974 31.8597 72.2367 31.396 71.4967 31.097C70.6886 30.7461 69.8131 30.5727 68.9308 30.5888H64.0436L64.9355 29.4997L64.8257 45.3875Z" fill="#1A9988"/>
<path d="M142.3 28.9431C143.819 28.9431 145.049 27.7242 145.049 26.2205C145.049 24.7169 143.819 23.4979 142.3 23.4979C140.782 23.4979 139.551 24.7169 139.551 26.2205C139.551 27.7242 140.782 28.9431 142.3 28.9431Z" fill="#FA5D48"/>
<path fill-rule="evenodd" clip-rule="evenodd" d="M23.2111 28.6163C22.9062 28.6151 22.6065 28.6939 22.3425 28.8449C22.0784 28.9958 21.8596 29.2133 21.7083 29.4754L16.271 39.0348C12.4956 45.6537 17.5787 53.6883 25.5205 53.6883H35.1362C43.0902 53.6883 48.1602 45.6537 44.3971 39.0348L38.9604 29.4754C38.809 29.2133 38.5902 28.9958 38.3262 28.8449C38.0622 28.6939 37.7624 28.6151 37.4576 28.6163H23.2111ZM35.6982 38.8896C35.8296 38.771 35.9345 38.6271 36.0073 38.4665C36.08 38.306 36.1186 38.1322 36.1206 37.9562C36.1227 37.7802 36.0882 37.6058 36.0192 37.4436C35.9502 37.2815 35.8483 37.135 35.7197 37.0135C35.5912 36.892 35.4391 36.7981 35.2723 36.7374C35.1055 36.6768 34.9276 36.6508 34.7503 36.6611C34.5729 36.6713 34.3993 36.7176 34.2408 36.7971C34.0822 36.8766 33.9419 36.9875 33.8285 37.123L29.1244 41.9631L26.9135 39.664C26.6712 39.4453 26.3536 39.3259 26.0258 39.3296C25.698 39.3333 25.3842 39.46 25.147 39.6841C24.9098 39.9082 24.767 40.2131 24.7479 40.5373C24.7288 40.8614 24.8346 41.1807 25.0438 41.4306L27.2553 43.7297C27.4986 43.9854 27.7923 44.189 28.118 44.3282C28.4437 44.4675 28.7942 44.5393 29.1489 44.5393C29.5036 44.5393 29.8547 44.4675 30.1804 44.3282C30.5061 44.189 30.7998 43.9854 31.0431 43.7297L35.6982 38.8896Z" fill="#1A9988"/>
<path fill-rule="evenodd" clip-rule="evenodd" d="M33.8651 17.3025C34.3396 17.0683 34.8705 16.9706 35.3983 17.0205C35.9261 17.0704 36.4292 17.2658 36.8504 17.5846C37.2716 17.9035 37.594 18.3329 37.7811 18.8242C37.9682 19.3155 38.013 19.849 37.9093 20.3639L37.0783 24.4658C36.9473 25.1472 36.5801 25.7619 36.0402 26.2038C35.5004 26.6456 34.822 26.8869 34.1216 26.8859H26.5342C25.86 26.8891 25.2041 26.6678 24.6723 26.2574C24.1405 25.847 23.7631 25.2714 23.6014 24.6231L23.1128 22.6992C22.9635 22.1091 22.9711 21.4907 23.1349 20.9044C23.2987 20.3181 23.6133 19.7838 24.0477 19.3536C24.482 18.9234 25.0217 18.612 25.6137 18.4498C26.2057 18.2875 26.8303 18.2799 27.4261 18.4277C29.2226 18.8751 31.1215 18.669 32.7775 17.847L33.8651 17.3025Z" fill="#1A9988"/>
<path fill-rule="evenodd" clip-rule="evenodd" d="M33.8651 17.3025C34.3396 17.0683 34.8705 16.9706 35.3983 17.0205C35.9261 17.0704 36.4292 17.2658 36.8504 17.5846C37.2716 17.9035 37.594 18.3329 37.7811 18.8242C37.9682 19.3155 38.013 19.849 37.9093 20.3639L37.0783 24.4658C36.9473 25.1472 36.5801 25.7619 36.0402 26.2038C35.5004 26.6456 34.822 26.8869 34.1216 26.8859H26.5342C25.86 26.8891 25.2041 26.6678 24.6723 26.2574C24.1405 25.847 23.7631 25.2714 23.6014 24.6231L23.1128 22.6992C22.9635 22.1091 22.9711 21.4907 23.1349 20.9044C23.2987 20.3181 23.6133 19.7838 24.0477 19.3536C24.482 18.9234 25.0217 18.612 25.6137 18.4498C26.2057 18.2875 26.8303 18.2799 27.4261 18.4277C29.2226 18.8751 31.1215 18.669 32.7775 17.847L33.8651 17.3025Z" fill="#1A9988"/>
<path d="M188.363 49.7074C186.17 49.7557 184 49.2651 182.046 48.2795C180.242 47.3378 178.782 45.8613 177.867 44.0565C176.847 41.9198 176.369 39.5688 176.474 37.2076C176.476 34.7752 177.085 32.3808 178.246 30.2378C179.272 28.3877 180.827 26.8802 182.718 25.9059C184.723 24.9023 186.947 24.3997 189.194 24.4418C192.647 24.4418 195.295 25.1596 197.135 26.5955C199.066 28.1962 200.364 30.4202 200.801 32.8757L195.73 33.6502C195.546 32.6535 195.05 31.7392 194.313 31.0364C193.634 30.4181 192.818 29.9663 191.93 29.7175C191.036 29.4629 190.111 29.3325 189.181 29.3302C188.126 29.2388 187.063 29.379 186.068 29.7409C185.073 30.1027 184.171 30.6772 183.426 31.4236C182.18 32.9378 181.549 34.8577 181.655 36.8083C181.581 37.8698 181.731 38.9349 182.097 39.9352C182.463 40.9355 183.037 41.8488 183.781 42.6164C185.46 44.0314 187.629 44.7432 189.829 44.6009C190.754 44.6017 191.674 44.4797 192.566 44.238C193.437 44.0061 194.25 43.5937 194.948 43.028C195.666 42.4135 196.181 41.5999 196.427 40.6925H191.76V36.9293H201.326V49.187H197.783L196.561 45.5569H196.476C196.217 46.1149 195.866 46.6261 195.437 47.0694C194.927 47.5908 194.342 48.0351 193.702 48.3883C192.95 48.8011 192.15 49.1221 191.319 49.3443C190.354 49.5917 189.36 49.7138 188.363 49.7074Z" fill="#1A9988"/>
<path d="M210.857 49.6711C209.491 49.7884 208.128 49.4223 207.009 48.638C205.891 47.8537 205.089 46.7019 204.748 45.3875C203.863 42.2202 203.863 38.8745 204.748 35.7072C205.117 34.4455 205.862 33.3236 206.886 32.4884C208.009 31.6515 209.391 31.2241 210.796 31.2784C211.737 31.2476 212.675 31.3997 213.557 31.7261C214.2 31.98 214.786 32.3585 215.28 32.8394C215.644 33.2018 215.96 33.6084 216.22 34.0494C216.339 34.278 216.469 34.5002 216.611 34.715H216.697V31.339H222.121V49.187H217.528L216.697 46.5008H216.611C216.517 46.7404 216.394 46.9678 216.245 47.1783C215.964 47.5711 215.631 47.9251 215.255 48.2311C214.734 48.6548 214.143 48.9865 213.508 49.2113C212.657 49.5133 211.76 49.6688 210.857 49.6711ZM213.044 45.2908C213.877 45.3509 214.707 45.1337 215.401 44.6736C215.939 44.2361 216.31 43.6299 216.453 42.9553C216.629 42.1893 216.715 41.4057 216.709 40.62C216.718 39.8062 216.632 38.9941 216.453 38.1999C216.313 37.5344 215.94 36.9389 215.401 36.518C214.703 36.0671 213.875 35.8547 213.044 35.9129C212.197 35.8509 211.355 36.0818 210.661 36.5663C210.119 36.9968 209.743 37.5995 209.598 38.2725C209.239 39.7928 209.239 41.3746 209.598 42.8949C209.746 43.57 210.121 44.1755 210.661 44.6131C211.355 45.0989 212.195 45.3378 213.044 45.2908Z" fill="#1A9988"/>
<path d="M226.105 31.3995H231.395V52.4783C231.471 53.1825 231.393 53.8947 231.167 54.5667C230.942 55.2388 230.573 55.8551 230.087 56.3745C229.044 57.1774 227.741 57.5774 226.422 57.4999H223.148V53.4706H226.117L226.105 31.3995ZM228.731 29.2819C228.32 29.3382 227.902 29.2899 227.515 29.1417C227.128 28.9935 226.786 28.7503 226.52 28.4348C226.127 27.8697 225.922 27.1971 225.933 26.5109C225.925 25.8477 226.131 25.1992 226.52 24.6595C226.793 24.3544 227.137 24.12 227.523 23.9766C227.908 23.8332 228.323 23.7853 228.731 23.8367C229.136 23.7818 229.549 23.8283 229.931 23.972C230.313 24.1158 230.652 24.3521 230.918 24.6595C231.268 25.2145 231.45 25.8568 231.444 26.5109C231.454 27.1882 231.271 27.8546 230.918 28.4348C230.66 28.752 230.322 28.9969 229.938 29.1454C229.555 29.2939 229.139 29.341 228.731 29.2819Z" fill="#1A9988"/>
<path d="M239.654 29.282C239.241 29.3405 238.82 29.2934 238.431 29.1451C238.041 28.9968 237.697 28.7523 237.43 28.4349C237.046 27.8664 236.845 27.1952 236.856 26.511C236.849 25.8499 237.05 25.203 237.43 24.6596C237.7 24.3466 238.045 24.1068 238.434 23.9629C238.823 23.8189 239.243 23.7755 239.654 23.8369C240.059 23.7819 240.471 23.8284 240.853 23.9722C241.235 24.1159 241.575 24.3523 241.841 24.6596C242.19 25.2146 242.373 25.8569 242.366 26.511C242.376 27.1883 242.194 27.8547 241.841 28.4349C241.582 28.7521 241.244 28.997 240.861 29.1456C240.477 29.2941 240.061 29.3412 239.654 29.282ZM237.027 49.2356V31.3996H242.269V49.1871L237.027 49.2356Z" fill="#1A9988"/>
<path d="M252.043 49.6711C250.678 49.7884 249.315 49.4223 248.196 48.638C247.077 47.8537 246.276 46.7019 245.934 45.3875C245.034 42.2223 245.034 38.8723 245.934 35.7072C246.303 34.4455 247.049 33.3236 248.072 32.4884C249.196 31.6515 250.577 31.2241 251.982 31.2784C252.92 31.2463 253.854 31.3985 254.732 31.7261C255.38 31.9771 255.97 32.3559 256.466 32.8394C256.83 33.2018 257.147 33.6084 257.407 34.0494C257.526 34.278 257.656 34.5002 257.798 34.715H257.883V31.339H263.296V49.187H258.714L257.883 46.5008H257.798C257.698 46.7399 257.57 46.9671 257.419 47.1783C257.143 47.5712 256.814 47.9253 256.442 48.2311C255.919 48.6523 255.328 48.9837 254.695 49.2113C253.844 49.5133 252.947 49.6688 252.043 49.6711ZM254.23 45.2908C255.064 45.3509 255.894 45.1337 256.589 44.6736C257.126 44.2361 257.497 43.6299 257.639 42.9553C257.816 42.1893 257.902 41.4057 257.896 40.62C257.905 39.8062 257.819 38.9941 257.639 38.1999C257.5 37.5344 257.128 36.9389 256.589 36.518C255.89 36.0671 255.062 35.8547 254.23 35.9129C253.363 35.8365 252.497 36.068 251.787 36.5663C251.245 36.9995 250.867 37.6004 250.712 38.2725C250.37 39.7946 250.37 41.3727 250.712 42.8949C250.87 43.5692 251.247 44.173 251.787 44.6131C252.491 45.1069 253.345 45.3462 254.206 45.2908H254.23Z" fill="#1A9988"/>
<path d="M266.302 49.187V31.3995H270.847L271.726 34.957H271.812C271.926 34.7613 272.028 34.5593 272.118 34.352C272.351 33.9061 272.652 33.4981 273.01 33.1419C273.518 32.6321 274.119 32.2216 274.781 31.9319C275.695 31.5596 276.677 31.3824 277.665 31.4116C278.754 31.3697 279.836 31.5941 280.817 32.065C281.581 32.4604 282.226 33.0491 282.686 33.7712C283.128 34.4846 283.434 35.272 283.59 36.0945C283.747 36.8928 283.841 37.7019 283.871 38.5146C283.871 39.3011 283.871 40.0029 283.871 40.6079V49.187H278.752V40.5352C278.756 39.7916 278.683 39.0495 278.532 38.3209C278.41 37.6675 278.08 37.0698 277.591 36.6147C276.898 36.1654 276.087 35.9263 275.258 35.9263C274.429 35.9263 273.618 36.1654 272.924 36.6147C272.409 37.0788 272.059 37.6937 271.922 38.3694C271.751 39.1115 271.669 39.871 271.678 40.6321V49.1024L266.302 49.187Z" fill="#1A9988"/>
</g>
<defs>
<clipPath id="clip0_420_928">
<rect width="268.92" height="40.5" fill="white" transform="translate(15.0001 17)"/>
</clipPath>
</defs>
</svg>
